<svg xmlns="http://www.w3.org/2000/svg" fill="#000000" id="svgcontent" x="192.0000504960003" y="239.5999495039997" viewBox="0 0 23.999999999999996 23.999999999999996" width="60" height="60"><g style="pointer-events:all"><title style="pointer-events:inherit">Layer 1</title><path fill="url(#svg_3)" d="M19,10L19,7C19,5.897 18.103,5 17,5L14,5C14,3.346 12.654,2 11,2S8,3.346 8,5L5,5C3.897,5 3,5.897 3,7L3,11L4,11A2,2 0 0 1 4,15L3,15L3,19C3,20.103 3.897,21 5,21L9,21L9,20A2,2 0 0 1 13,20L13,21L17,21C18.103,21 19,20.103 19,19L19,16C20.654,16 22,14.654 22,13S20.654,10 19,10z" id="svg_1"></path><defs transform="translate(-13.0066, 9.32667) translate(12.7528, -1.39583) translate(-21.7622, 5.26608) translate(-14.9734, 3.23579) translate(-0.126894) translate(-0.0634468) translate(-12.0202) translate(0, -10.8505)" style="pointer-events:inherit"><linearGradient spreadMethod="pad" y2="-0.30367" x2="0.18111" y1="1.36819" x1="1.87784" id="svg_3" style="pointer-events:inherit"><stop stop-opacity="0.99609" stop-color="#7f7f00" offset="0.45" style="pointer-events:inherit"></stop><stop stop-opacity="0.99609" stop-color="#ffff00" offset="0.83826" style="pointer-events:inherit"></stop></linearGradient></defs><defs transform="translate(-12.0202) translate(0, -10.8505)"></defs></g></svg>
